<?xml version="1.0" encoding="UTF-8" standalone="no"?>
<svg width="68px" height="55px" viewBox="0 0 68 55" version="1.1" xmlns="http://www.w3.org/2000/svg" xmlns:xlink="http://www.w3.org/1999/xlink" xmlns:sketch="http://www.bohemiancoding.com/sketch/ns">
    <!-- Generator: Sketch 3.3.3 (12072) - http://www.bohemiancoding.com/sketch -->
    <title>Artboard 1</title>
    <desc>Created with Sketch.</desc>
    <defs></defs>
    <g id="assets" stroke="none" stroke-width="1" fill="none" fill-rule="evenodd" sketch:type="MSPage">
        <g id="Artboard-1" sketch:type="MSArtboardGroup" transform="translate(-11.000000, -9.000000)" fill="#E0E0E0">
            <path d="M78.8,18.3 L69.4,18.3 L69.4,9 L63.4,9 L63.4,18.3 L54,18.3 L54,24.1 L63.4,24.1 L63.4,33.8 L69.4,33.8 L69.4,24.1 L78.8,24.1 L78.8,18.3 Z" id="Shape" sketch:type="MSShapeGroup"></path>
            <path d="M59.6,37.7 L59.6,28.3 L50.2,28.3 L50.2,19 L11,19 L11,63.5 L69,63.5 L69,37.7 L59.6,37.7 L59.6,37.7 Z M30.4,39.9 L32.5,39 L45.3,52.5 L52.3,48.4 L62.8,57.6 L16.8,57.6 L30.4,39.9 L30.4,39.9 Z" id="Shape" sketch:type="MSShapeGroup"></path>
        </g>
    </g>
</svg>