<?xml version="1.0" encoding="UTF-8" standalone="no"?>
<svg width="162px" height="162px" viewBox="0 0 162 162" version="1.1" xmlns="http://www.w3.org/2000/svg" xmlns:xlink="http://www.w3.org/1999/xlink" xmlns:sketch="http://www.bohemiancoding.com/sketch/ns">
    <!-- Generator: Sketch 3.3.3 (12072) - http://www.bohemiancoding.com/sketch -->
    <title>Slice 1 Copy</title>
    <desc>Created with Sketch.</desc>
    <defs></defs>
    <g id="prototype" stroke="none" stroke-width="1" fill="none" fill-rule="evenodd" sketch:type="MSPage">
        <path d="M92.752,89.788 C96.739,89.788 100.38,86.751 100.619,81.027 C100.38,75.303 96.739,72.266 92.751,72.266 C90.744,72.266 88.649,73.036 86.855,74.619 C85.733,75.609 84.472,76.109 83.303,76.109 C81.081,76.109 79.188,74.305 79.186,70.632 L79.186,59.686 C79.186,57.889 77.729,56.433 75.932,56.433 L64.994,56.433 L44.193,56.433 L33.254,56.433 C31.457,56.433 30,57.889 30,59.686 L30,70.638 C30.005,74.307 31.898,76.109 34.118,76.109 C35.287,76.109 36.547,75.609 37.67,74.619 C39.463,73.036 41.559,72.266 43.566,72.266 C47.554,72.266 51.195,75.302 51.434,81.027 C51.195,86.75 47.554,89.788 43.566,89.788 C41.559,89.788 39.464,89.018 37.67,87.435 C36.548,86.445 35.287,85.945 34.118,85.945 C31.897,85.945 30.005,87.746 30,91.416 L30,102.367 C30,104.164 31.457,105.621 33.254,105.621 L44.193,105.621 L64.994,105.621 L75.932,105.621 C77.729,105.621 79.186,104.164 79.186,102.367 L79.186,91.422 C79.188,87.749 81.082,85.945 83.303,85.945 C84.474,85.945 85.734,86.445 86.856,87.435 C88.65,89.018 90.745,89.788 92.752,89.788 Z" id="Shape-Copy" fill="#DC4E4E" sketch:type="MSShapeGroup"></path>
        <path d="M130.187,70.626 L130.187,59.686 C130.187,57.889 128.731,56.433 126.934,56.433 L115.995,56.433 L95.194,56.433 L84.255,56.433 C82.459,56.433 81.003,57.889 81.002,59.685 L81.002,70.631 C81.004,73.006 81.958,74.482 83.493,74.482 C84.298,74.482 85.177,74.097 85.969,73.399 C87.985,71.62 90.461,70.639 92.941,70.639 C98.277,70.639 102.181,74.883 102.434,80.958 C102.179,87.17 98.275,91.413 92.94,91.413 C90.46,91.413 87.983,90.434 85.967,88.654 C85.175,87.956 84.296,87.571 83.491,87.571 C81.956,87.571 81.002,89.047 81,91.421 L81,102.367 C81.001,104.165 82.457,105.621 84.253,105.621 L95.194,105.621 L115.994,105.621 L126.932,105.621 C128.729,105.621 130.185,104.164 130.185,102.367 L130.185,91.427 C130.185,85.814 125.771,84.563 122.516,87.435 C117.16,92.163 109.114,89.631 108.754,81.027 C109.114,72.423 117.16,69.89 122.518,74.618 C125.773,77.489 130.187,76.239 130.187,70.626 Z" id="Shape-Copy-2" fill="#7E53A3" sketch:type="MSShapeGroup"></path>
    </g>
</svg>