<?xml version="1.0" encoding="UTF-8" standalone="no"?>
<svg width="276px" height="62px" viewBox="0 0 276 62" version="1.1" xmlns="http://www.w3.org/2000/svg" xmlns:xlink="http://www.w3.org/1999/xlink" xmlns:sketch="http://www.bohemiancoding.com/sketch/ns">
    <!-- Generator: Sketch 3.3.3 (12072) - http://www.bohemiancoding.com/sketch -->
    <title>logo-color-text</title>
    <desc>Created with Sketch.</desc>
    <defs>
        <linearGradient x1="50%" y1="100%" x2="50%" y2="0%" id="linearGradient-1">
            <stop stop-color="#FF0606" offset="0%"></stop>
            <stop stop-color="#FFFFFF" stop-opacity="0.5" offset="100%"></stop>
        </linearGradient>
        <path d="M49.8210914,58.3139964 C45.4788269,60.1862593 40.6237454,61.2335352 35.5,61.2335352 C16.9984609,61.2335352 2,47.57822 2,30.7335352 C2,13.8888503 16.9984609,1.23353515 35.5,1.23353515 C54.0015391,1.23353515 69,13.8888503 69,30.7335352 C69,39.1855235 65.2239417,46.8345464 59.1239748,52.3584973 C60.8204896,55.902856 62.8042211,58.987253 65.059481,62 C60.8935103,61.1144956 55.5813887,60.201373 49.8210914,58.3139964 L49.8210914,58.3139964 Z M36,34.2236381 C36,33.1245346 36.8956171,32.2335352 37.9901029,32.2335352 L46.7465558,32.2335352 C47.8456593,32.2335352 48.7366588,33.1291523 48.7366588,34.2236381 L48.7366588,42.980091 C48.7366588,44.0791945 47.8410417,44.9701939 46.7465558,44.9701939 L37.9901029,44.9701939 C36.8909994,44.9701939 36,44.0745768 36,42.980091 L36,34.2236381 Z M23.0935601,30.4635347 C21.9925506,30.4635347 21.1000061,29.5676826 21.1000061,28.4729097 L21.1000061,19.7141599 C21.1000061,18.6147681 21.9909046,17.7235349 23.0935601,17.7235349 L46.8264514,17.7235349 C47.9274609,17.7235349 48.8200054,18.619387 48.8200054,19.7141599 L48.8200054,28.4729097 C48.8200054,29.5723015 47.9291069,30.4635347 46.8264514,30.4635347 L23.0935601,30.4635347 Z M21,34.2236381 C21,33.1245346 21.8956171,32.2335352 22.9901029,32.2335352 L31.7465558,32.2335352 C32.8456593,32.2335352 33.7366588,33.1291523 33.7366588,34.2236381 L33.7366588,42.980091 C33.7366588,44.0791945 32.8410417,44.9701939 31.7465558,44.9701939 L22.9901029,44.9701939 C21.8909994,44.9701939 21,44.0745768 21,42.980091 L21,34.2236381 Z" id="path-2"></path>
    </defs>
    <g id="assets" stroke="none" stroke-width="1" fill="none" fill-rule="evenodd" sketch:type="MSPage">
        <g id="logo-color-text" sketch:type="MSArtboardGroup">
            <g id="Oval-17">
                <use fill="#7E53A3" sketch:type="MSShapeGroup" xlink:href="#path-2"></use>
                <use fill-opacity="0.300000012" fill="url(#linearGradient-1)" xlink:href="#path-2"></use>
            </g>
            <path d="M96.1035156,35.3164062 L96.1035156,44 L89.9335938,44 L89.9335938,18.40625 L100.146484,18.40625 C102.103525,18.40625 103.834953,18.766598 105.34082,19.4873047 C106.846687,20.2080114 108.012691,21.2333918 108.838867,22.5634766 C109.665043,23.8935613 110.078125,25.4023353 110.078125,27.0898438 C110.078125,29.58595 109.184579,31.5810472 107.397461,33.0751953 C105.610343,34.5693434 103.158219,35.3164062 100.041016,35.3164062 L96.1035156,35.3164062 Z M96.1035156,30.5527344 L100.146484,30.5527344 C101.341803,30.5527344 102.252927,30.2539092 102.879883,29.65625 C103.506839,29.0585908 103.820312,28.2148492 103.820312,27.125 C103.820312,25.9296815 103.49805,24.9746129 102.853516,24.2597656 C102.208981,23.5449183 101.330084,23.1816407 100.216797,23.1699219 L96.1035156,23.1699219 L96.1035156,30.5527344 Z M118.884766,27.0195312 C120.150397,25.4257733 121.767568,24.6289062 123.736328,24.6289062 C125.833995,24.6289062 127.41601,25.2499938 128.482422,26.4921875 C129.548833,27.7343812 130.09375,29.5683472 130.117188,31.9941406 L130.117188,44 L124.175781,44 L124.175781,32.1347656 C124.175781,31.1269481 123.970705,30.3857446 123.560547,29.9111328 C123.150389,29.4365211 122.45313,29.1992188 121.46875,29.1992188 C120.249994,29.1992188 119.388674,29.5859336 118.884766,30.359375 L118.884766,44 L112.960938,44 L112.960938,17 L118.884766,17 L118.884766,27.0195312 Z M132.666016,34.3144531 C132.666016,32.4160061 133.035153,30.7255933 133.773438,29.2431641 C134.511722,27.7607348 135.572259,26.6210977 136.955078,25.8242188 C138.337898,25.0273398 139.960928,24.6289062 141.824219,24.6289062 C144.671889,24.6289062 146.916007,25.5107334 148.556641,27.2744141 C150.197274,29.0380948 151.017578,31.4374848 151.017578,34.4726562 L151.017578,34.6835938 C151.017578,37.6484523 150.194344,40.0009679 148.547852,41.7412109 C146.901359,43.481454 144.671889,44.3515625 141.859375,44.3515625 C139.15233,44.3515625 136.978524,43.5400472 135.337891,41.9169922 C133.697257,40.2939372 132.812501,38.0937639 132.683594,35.3164062 L132.666016,34.3144531 Z M138.589844,34.6835938 C138.589844,36.441415 138.865232,37.7304646 139.416016,38.5507812 C139.9668,39.3710979 140.781245,39.78125 141.859375,39.78125 C143.968761,39.78125 145.046875,38.1582194 145.09375,34.9121094 L145.09375,34.3144531 C145.09375,30.9042798 144.003917,29.1992188 141.824219,29.1992188 C139.84374,29.1992188 138.771485,30.6699072 138.607422,33.6113281 L138.589844,34.6835938 Z M160.527344,20.2519531 L160.527344,24.9804688 L163.65625,24.9804688 L163.65625,29.09375 L160.527344,29.09375 L160.527344,37.7949219 C160.527344,38.5097692 160.656249,39.0078111 160.914062,39.2890625 C161.171876,39.5703139 161.681637,39.7109375 162.443359,39.7109375 C163.0293,39.7109375 163.521482,39.6757816 163.919922,39.6054688 L163.919922,43.8417969 C162.85351,44.1816423 161.74024,44.3515625 160.580078,44.3515625 C158.541005,44.3515625 157.035161,43.8710986 156.0625,42.9101562 C155.089839,41.9492139 154.603516,40.4902442 154.603516,38.5332031 L154.603516,29.09375 L152.177734,29.09375 L152.177734,24.9804688 L154.603516,24.9804688 L154.603516,20.2519531 L160.527344,20.2519531 Z M165.238281,34.3144531 C165.238281,32.4160061 165.607418,30.7255933 166.345703,29.2431641 C167.083988,27.7607348 168.144524,26.6210977 169.527344,25.8242188 C170.910163,25.0273398 172.533194,24.6289062 174.396484,24.6289062 C177.244155,24.6289062 179.488273,25.5107334 181.128906,27.2744141 C182.769539,29.0380948 183.589844,31.4374848 183.589844,34.4726562 L183.589844,34.6835938 C183.589844,37.6484523 182.76661,40.0009679 181.120117,41.7412109 C179.473625,43.481454 177.244155,44.3515625 174.431641,44.3515625 C171.724596,44.3515625 169.550789,43.5400472 167.910156,41.9169922 C166.269523,40.2939372 165.384766,38.0937639 165.255859,35.3164062 L165.238281,34.3144531 Z M171.162109,34.6835938 C171.162109,36.441415 171.437497,37.7304646 171.988281,38.5507812 C172.539065,39.3710979 173.35351,39.78125 174.431641,39.78125 C176.541026,39.78125 177.61914,38.1582194 177.666016,34.9121094 L177.666016,34.3144531 C177.666016,30.9042798 176.576183,29.1992188 174.396484,29.1992188 C172.416006,29.1992188 171.343751,30.6699072 171.179688,33.6113281 L171.162109,34.6835938 Z M196.158203,38.65625 C196.158203,38.1523412 195.894534,37.7480484 195.367188,37.4433594 C194.839841,37.1386704 193.837898,36.8222673 192.361328,36.4941406 C190.884758,36.166014 189.66602,35.7353542 188.705078,35.2021484 C187.744136,34.6689426 187.011721,34.0214882 186.507812,33.2597656 C186.003904,32.4980431 185.751953,31.6250049 185.751953,30.640625 C185.751953,28.8945225 186.472649,27.4560603 187.914062,26.3251953 C189.355476,25.1943303 191.242176,24.6289062 193.574219,24.6289062 C196.082044,24.6289062 198.097649,25.1972599 199.621094,26.3339844 C201.144539,27.4707088 201.90625,28.9648345 201.90625,30.8164062 L195.964844,30.8164062 C195.964844,29.2929611 195.162117,28.53125 193.556641,28.53125 C192.935544,28.53125 192.414065,28.7040998 191.992188,29.0498047 C191.57031,29.3955095 191.359375,29.8261693 191.359375,30.3417969 C191.359375,30.8691433 191.617185,31.2968734 192.132812,31.625 C192.64844,31.9531266 193.471674,32.2226552 194.602539,32.4335938 C195.733404,32.6445323 196.726558,32.8964829 197.582031,33.1894531 C200.441421,34.173833 201.871094,35.9374873 201.871094,38.4804688 C201.871094,40.2148524 201.100594,41.6269477 199.55957,42.7167969 C198.018547,43.8066461 196.02345,44.3515625 193.574219,44.3515625 C191.945304,44.3515625 190.492194,44.0585967 189.214844,43.4726562 C187.937494,42.8867158 186.94141,42.0898488 186.226562,41.0820312 C185.511715,40.0742137 185.154297,39.0136774 185.154297,37.9003906 L190.691406,37.9003906 C190.714844,38.7793013 191.00781,39.4208964 191.570312,39.8251953 C192.132815,40.2294942 192.853511,40.4316406 193.732422,40.4316406 C194.54102,40.4316406 195.147459,40.2675798 195.551758,39.9394531 C195.956057,39.6113265 196.158203,39.1835964 196.158203,38.65625 L196.158203,38.65625 Z M211.539062,20.2519531 L211.539062,24.9804688 L214.667969,24.9804688 L214.667969,29.09375 L211.539062,29.09375 L211.539062,37.7949219 C211.539062,38.5097692 211.667967,39.0078111 211.925781,39.2890625 C212.183595,39.5703139 212.693356,39.7109375 213.455078,39.7109375 C214.041019,39.7109375 214.533201,39.6757816 214.931641,39.6054688 L214.931641,43.8417969 C213.865229,44.1816423 212.751959,44.3515625 211.591797,44.3515625 C209.552724,44.3515625 208.04688,43.8710986 207.074219,42.9101562 C206.101558,41.9492139 205.615234,40.4902442 205.615234,38.5332031 L205.615234,29.09375 L203.189453,29.09375 L203.189453,24.9804688 L205.615234,24.9804688 L205.615234,20.2519531 L211.539062,20.2519531 Z M216.25,34.3144531 C216.25,32.4160061 216.619137,30.7255933 217.357422,29.2431641 C218.095707,27.7607348 219.156243,26.6210977 220.539062,25.8242188 C221.921882,25.0273398 223.544913,24.6289062 225.408203,24.6289062 C228.255874,24.6289062 230.499992,25.5107334 232.140625,27.2744141 C233.781258,29.0380948 234.601562,31.4374848 234.601562,34.4726562 L234.601562,34.6835938 C234.601562,37.6484523 233.778329,40.0009679 232.131836,41.7412109 C230.485343,43.481454 228.255873,44.3515625 225.443359,44.3515625 C222.736315,44.3515625 220.562508,43.5400472 218.921875,41.9169922 C217.281242,40.2939372 216.396485,38.0937639 216.267578,35.3164062 L216.25,34.3144531 Z M222.173828,34.6835938 C222.173828,36.441415 222.449216,37.7304646 223,38.5507812 C223.550784,39.3710979 224.365229,39.78125 225.443359,39.78125 C227.552745,39.78125 228.630859,38.1582194 228.677734,34.9121094 L228.677734,34.3144531 C228.677734,30.9042798 227.587902,29.1992188 225.408203,29.1992188 C223.427724,29.1992188 222.35547,30.6699072 222.191406,33.6113281 L222.173828,34.6835938 Z M248.716797,30.3417969 L246.765625,30.2011719 C244.902334,30.2011719 243.707034,30.7871035 243.179688,31.9589844 L243.179688,44 L237.255859,44 L237.255859,24.9804688 L242.810547,24.9804688 L243.003906,27.4238281 C244.000005,25.5605376 245.388663,24.6289062 247.169922,24.6289062 C247.802738,24.6289062 248.353513,24.699218 248.822266,24.8398438 L248.716797,30.3417969 Z M258.455078,35.703125 L261.619141,24.9804688 L267.964844,24.9804688 L260.212891,47.1816406 L259.878906,47.9902344 C258.777338,50.4511842 256.832045,51.6816406 254.042969,51.6816406 C253.269527,51.6816406 252.455082,51.5644543 251.599609,51.3300781 L251.599609,47.09375 L252.373047,47.09375 C253.205082,47.09375 253.840818,46.973634 254.280273,46.7333984 C254.719729,46.4931629 255.044921,46.0625031 255.255859,45.4414062 L255.730469,44.1757812 L249.121094,24.9804688 L255.449219,24.9804688 L258.455078,35.703125 Z" id="Photostory" fill="#4E2D2D" sketch:type="MSShapeGroup"></path>
        </g>
    </g>
</svg>